<svg width="18" height="18" viewBox="0 0 18 18" fill="none" xmlns="http://www.w3.org/2000/svg">
<path d="M12.2972 2.44314H5.70281C4.98754 2.44314 4.4077 3.03005 4.4077 3.75404V11.5935C4.4077 12.3175 4.98754 12.9044 5.70281 12.9044H12.2972C13.0124 12.9044 13.5923 12.3175 13.5923 11.5935V3.75404C13.5923 3.03005 13.0124 2.44314 12.2972 2.44314Z" stroke="#3F586E" stroke-width="1.4" stroke-miterlimit="10" stroke-linecap="round"/>
<path d="M4.4381 8.36518H12.9018" stroke="#3F586E" stroke-width="1.4" stroke-miterlimit="10" stroke-linecap="round"/>
<path d="M6.7972 11.3127C7.21163 11.3127 7.5476 10.9655 7.5476 10.5371C7.5476 10.1087 7.21163 9.76149 6.7972 9.76149C6.38276 9.76149 6.0468 10.1087 6.0468 10.5371C6.0468 10.9655 6.38276 11.3127 6.7972 11.3127Z" fill="#3F586E"/>
<path d="M11.2028 11.3127C11.6172 11.3127 11.9532 10.9655 11.9532 10.5371C11.9532 10.1087 11.6172 9.76149 11.2028 9.76149C10.7883 9.76149 10.4524 10.1087 10.4524 10.5371C10.4524 10.9655 10.7883 11.3127 11.2028 11.3127Z" fill="#3F586E"/>
<path d="M6.04682 12.9351L4.4077 15.5569" stroke="#3F586E" stroke-width="1.4" stroke-miterlimit="10" stroke-linecap="round"/>
<path d="M11.9532 12.9351L13.5923 15.5569" stroke="#3F586E" stroke-width="1.4" stroke-miterlimit="10" stroke-linecap="round"/>
</svg>
